<?xml version="1.0" encoding="utf-8"?>
<!-- Generator: Adobe Illustrator 18.1.0, SVG Export Plug-In . SVG Version: 6.00 Build 0)  -->
<svg version="1.1" id="Capa_1" xmlns="http://www.w3.org/2000/svg" xmlns:xlink="http://www.w3.org/1999/xlink" x="0px" y="0px"
	 viewBox="0 0 960 560" enable-background="new 0 0 960 560" xml:space="preserve">
<g>
	<g>
		<polygon fill="#B7C736" points="107.7,67 82.8,52.6 48.2,72.7 48,169.9 107.7,204.4 192,155.7 192,58.4 167.2,72.7 167.2,141.4 
			107.7,175.7 73.1,155.7 73,87 		"/>
		<polygon fill="#6C8332" points="107.7,175.7 107.7,147.1 142.4,127.1 142.4,87 82.8,52.6 48.2,72.7 23.4,58.4 82.8,24 167.2,72.7 
			167.2,141.4 		"/>
		<polygon fill="#4E652E" points="167.2,72.7 192,58.4 107.7,9.7 82.8,24 		"/>
		<polygon fill="#4E652E" points="107.7,175.7 73.1,155.7 73.1,127.1 107.7,147.1 		"/>
		<polygon fill="#4E652E" points="48,169.9 23.4,155.7 23.4,58.4 48.2,72.7 		"/>
	</g>
	<g>
		<g>
			<path fill="#1F1E21" d="M216.8,102.7V58.4h18.6h1.7c5,0,8.4,1,10.2,2.9c1.8,1.9,2.7,5.5,2.7,10.8c0,5.1-0.9,8.5-2.8,10.4
				c-1.9,1.8-5.5,2.8-10.7,2.8l-2,0h-12.8v17.5H216.8z M221.8,81h11.9c5,0,8.1-0.5,9.5-1.5c1.4-1,2.1-3.4,2.1-7c0-4.3-0.5-7-1.4-8.1
				c-0.9-1.1-3.2-1.7-6.7-1.7l-1.9,0h-13.5V81z"/>
			<path fill="#1F1E21" d="M265.3,71.2c5.7,0,9.5,1,11.2,3c1.7,2,2.6,6.3,2.6,13c0,6.7-0.9,11-2.6,13c-1.7,2-5.4,3-11.2,3
				c-5.7,0-9.4-1-11.2-3c-1.7-2-2.6-6.3-2.6-13c0-6.7,0.9-11,2.6-13C255.9,72.2,259.6,71.2,265.3,71.2z M265.3,75
				c-4,0-6.5,0.7-7.5,2c-1,1.3-1.4,4.7-1.4,10.3c0,5.5,0.5,8.9,1.4,10.3c1,1.3,3.5,2,7.5,2c4.1,0,6.6-0.7,7.5-2
				c1-1.3,1.4-4.7,1.4-10.3c0-5.5-0.5-8.9-1.4-10.3C271.9,75.6,269.4,75,265.3,75z"/>
			<path fill="#1F1E21" d="M306.9,79.8h-4.5c0-2.2-0.4-3.5-1.3-4c-0.9-0.5-3.1-0.8-6.8-0.8c-3.4,0-5.5,0.3-6.4,0.8
				c-0.9,0.6-1.4,1.9-1.4,4c0,3.2,1.5,4.9,4.6,5l3.7,0.2l4.7,0.2c5.6,0.3,8.5,3.2,8.5,8.8c0,3.5-0.9,5.9-2.8,7.2
				c-1.9,1.3-5.3,2-10.2,2c-5.1,0-8.6-0.6-10.5-1.9c-1.9-1.2-2.9-3.5-2.9-6.8l0-1.7h4.7l0,1.5c0,2,0.5,3.4,1.6,4.1
				c1,0.7,3.1,1,6.1,1c3.7,0,6.2-0.4,7.4-1.1c1.2-0.7,1.8-2.2,1.8-4.5c0-3.3-1.5-4.9-4.5-4.9c-6.9,0-11.5-0.6-13.6-1.8
				c-2.2-1.2-3.3-3.6-3.3-7.3c0-3.5,0.9-5.8,2.6-7c1.7-1.2,5.2-1.7,10.3-1.7c8.2,0,12.4,2.5,12.4,7.4V79.8z"/>
			<path fill="#1F1E21" d="M335.1,79.8h-4.5c0-2.2-0.4-3.5-1.3-4c-0.9-0.5-3.1-0.8-6.8-0.8c-3.4,0-5.5,0.3-6.4,0.8
				c-0.9,0.6-1.4,1.9-1.4,4c0,3.2,1.5,4.9,4.6,5l3.7,0.2l4.6,0.2c5.6,0.3,8.5,3.2,8.5,8.8c0,3.5-0.9,5.9-2.8,7.2
				c-1.9,1.3-5.3,2-10.2,2c-5.1,0-8.6-0.6-10.5-1.9c-1.9-1.2-2.9-3.5-2.9-6.8l0-1.7h4.7l0,1.5c0,2,0.5,3.4,1.6,4.1
				c1,0.7,3.1,1,6.1,1c3.7,0,6.2-0.4,7.4-1.1c1.2-0.7,1.8-2.2,1.8-4.5c0-3.3-1.5-4.9-4.5-4.9c-6.9,0-11.5-0.6-13.6-1.8
				c-2.2-1.2-3.3-3.6-3.3-7.3c0-3.5,0.9-5.8,2.6-7c1.7-1.2,5.2-1.7,10.3-1.7c8.2,0,12.4,2.5,12.4,7.4V79.8z"/>
			<path fill="#1F1E21" d="M343.8,58.4v5.1h-4.6v-5.1H343.8z M343.8,71.7v31.1h-4.6V71.7H343.8z"/>
			<path fill="#1F1E21" d="M348.4,102.7V58.4h4.6v17.3l0.1,0.1c1-3,4.4-4.5,10.2-4.5c4.6,0,7.7,1.2,9.4,3.5
				c1.7,2.4,2.6,6.6,2.6,12.8c0,5.9-0.9,9.9-2.7,12.2c-1.8,2.3-5.1,3.4-9.9,3.4c-4.9,0-8.1-1.4-9.8-4.3l-0.1,0l0.2,3.8H348.4z
				 M362.1,75c-3.6,0-6,0.8-7.2,2.3c-1.2,1.5-1.8,4.6-1.8,9.1c0,5.6,0.5,9.2,1.6,10.7c1.1,1.5,3.6,2.3,7.6,2.3
				c3.3,0,5.5-0.8,6.6-2.4c1.1-1.6,1.6-4.8,1.6-9.7c0-5.1-0.5-8.5-1.6-10.1C367.9,75.8,365.6,75,362.1,75z"/>
			<path fill="#1F1E21" d="M383.7,58.4v44.4h-4.6V58.4H383.7z"/>
			<path fill="#1F1E21" d="M410,93.3h4.7l0,1.1c0,3.2-1,5.5-2.9,6.8c-2,1.3-5.4,1.9-10.3,1.9c-5.7,0-9.5-1-11.3-3.1
				c-1.8-2.1-2.7-6.5-2.7-13.2c0-6.2,0.9-10.4,2.7-12.5c1.8-2.1,5.3-3.2,10.6-3.2c5.7,0,9.5,0.9,11.2,2.8c1.8,1.8,2.7,5.7,2.7,11.6
				V88h-22.4c0,4.9,0.5,8,1.6,9.4c1,1.3,3.5,2,7.4,2c3.7,0,6-0.3,7.1-1c1.1-0.6,1.6-2,1.6-4.1V93.3z M410,84.5l0-1.5
				c0-3.4-0.6-5.5-1.7-6.6c-1.1-1-3.5-1.5-7.1-1.5c-3.7,0-6.1,0.6-7.2,1.8c-1.1,1.2-1.6,3.8-1.6,7.8H410z"/>
		</g>
		<g>
			<path fill="#1F1E21" d="M226.9,127.9h-9.6c0-4.7,1.1-7.8,3.3-9.4c2.2-1.6,6.5-2.4,13-2.4c7.1,0,11.8,1,14.3,2.9
				c2.5,1.9,3.7,5.6,3.7,11.1v25.6h-9.4l0.5-5.4l-0.2,0c-1.8,3.9-6,5.9-12.5,5.9c-9.5,0-14.2-4-14.2-12.1c0-8.1,4.9-12.2,14.6-12.2
				c6.5,0,10.4,1.5,11.8,4.5h0.2V130c0-3.1-0.5-5.1-1.6-6.1c-1.1-1-3.3-1.5-6.6-1.5C229.3,122.4,226.9,124.2,226.9,127.9z
				 M233.2,138.1c-5.3,0-8,1.8-8,5.5c0,2.5,0.5,4.2,1.6,5c1.1,0.8,3.4,1.2,6.9,1.2c5.7,0,8.6-1.9,8.6-5.8
				C242.4,140.1,239.3,138.1,233.2,138.1z"/>
			<path fill="#1F1E21" d="M256.8,116.5h9.5l-0.4,5.8l0.2,0c2.3-4.2,6.5-6.4,12.7-6.4c5.7,0,9.6,1.4,11.8,4.2
				c2.1,2.8,3.2,8,3.2,15.5c0,7.8-1.1,13.2-3.2,16.1c-2.1,2.9-6.1,4.3-11.8,4.3c-6.2,0-10.2-2-12.1-6.1h-0.2v22.5h-9.8V116.5z
				 M275.3,123.4c-3.6,0-5.9,0.8-7,2.4c-1.1,1.6-1.6,5-1.6,10.3c0,5.1,0.6,8.5,1.8,10.1c1.2,1.7,3.6,2.5,7.2,2.5
				c3.7,0,6-0.8,7.1-2.4c1.1-1.6,1.6-5,1.6-10.2c0-5.4-0.6-8.8-1.7-10.4C281.6,124.2,279.1,123.4,275.3,123.4z"/>
			<path fill="#1F1E21" d="M297.5,116.5h9.5l-0.4,5.8l0.2,0c2.3-4.2,6.5-6.4,12.7-6.4c5.7,0,9.6,1.4,11.8,4.2
				c2.1,2.8,3.2,8,3.2,15.5c0,7.8-1.1,13.2-3.2,16.1c-2.1,2.9-6.1,4.3-11.8,4.3c-6.1,0-10.2-2-12.1-6.1h-0.2v22.5h-9.8V116.5z
				 M316,123.4c-3.6,0-5.9,0.8-7,2.4c-1.1,1.6-1.6,5-1.6,10.3c0,5.1,0.6,8.5,1.8,10.1c1.2,1.7,3.6,2.5,7.2,2.5c3.7,0,6-0.8,7.1-2.4
				c1.1-1.6,1.6-5,1.6-10.2c0-5.4-0.6-8.8-1.7-10.4C322.3,124.2,319.8,123.4,316,123.4z"/>
		</g>
	</g>
</g>
</svg>
